# xmcd CD database file
#
# Track frame offsets:
#	150
#	57201
#	84481
#	181821
#	210181
#	278126
#
# Disc length: 4192 seconds
#
# Revision: 0
# Processed by: cddbd v1.5.2PL0 Copyright (c) Steve Scherf et al.
# Submitted via: CDex 1.70beta2
#
DISCID=45105e06
DTITLE=Cold Bleak Heat - Simitu
DYEAR=2007
DGENRE=Jazz
TTITLE0=The Voice of the People is the Voice of God
TTITLE1=Should We Destroy the Hubble?
TTITLE2=Mugged by a Glacier
TTITLE3=Pound Cake
TTITLE4=A White Bandaged Head in the Shadow of Death
TTITLE5=To Understand All is to Forgive All
EXTD=YEAR: 2007
EXTT0=
EXTT1=
EXTT2=
EXTT3=
EXTT4=
EXTT5=
PLAYORDER=
